<svg xmlns="http://www.w3.org/2000/svg" xmlns:xlink="http://www.w3.org/1999/xlink" width="2000" zoomAndPan="magnify" viewBox="0 0 1500 1499.999933" height="2000" preserveAspectRatio="xMidYMid meet" version="1.0"><defs><g/><clipPath id="bd69c48050"><path d="M 668 0.878906 L 1348.71875 0.878906 L 1348.71875 604 L 668 604 Z M 668 0.878906 " clip-rule="nonzero"/></clipPath><clipPath id="6175f75f86"><rect x="0" width="681" y="0" height="604"/></clipPath><clipPath id="97bfcc80ac"><path d="M 0.398438 160 L 660 160 L 660 629.441406 L 0.398438 629.441406 Z M 0.398438 160 " clip-rule="nonzero"/></clipPath><clipPath id="8397dc8907"><path d="M 437 0.480469 L 562 0.480469 L 562 342 L 437 342 Z M 437 0.480469 " clip-rule="nonzero"/></clipPath><clipPath id="0985a7b64a"><path d="M 531 0.480469 L 655 0.480469 L 655 342 L 531 342 Z M 531 0.480469 " clip-rule="nonzero"/></clipPath><clipPath id="4a7dd0d21d"><rect x="0" width="660" y="0" height="470"/></clipPath><clipPath id="81e6d4da67"><rect x="0" width="1349" y="0" height="630"/></clipPath></defs><g transform="matrix(1, 0, 0, 1, 80, 416)"><g clip-path="url(#81e6d4da67)"><g clip-path="url(#bd69c48050)"><g transform="matrix(1, 0, 0, 1, 668, 0.000000000000113687)"><g clip-path="url(#6175f75f86)"><g fill="#ffffff" fill-opacity="1"><g transform="translate(5.129236, 490.290031)"><g><path d="M 21.421875 -288.40625 L 117.015625 -288.40625 L 173.453125 -124.84375 L 174.6875 -124.84375 L 231.140625 -288.40625 L 326.734375 -288.40625 L 326.734375 0 L 263.6875 0 L 263.6875 -197.765625 L 262.046875 -197.765625 L 194.46875 0 L 153.6875 0 L 86.109375 -197.765625 L 84.46875 -197.765625 L 84.46875 0 L 21.421875 0 Z M 21.421875 -288.40625 "/></g></g></g><g fill="#ffffff" fill-opacity="1"><g transform="translate(324.025989, 490.290031)"><g><path d="M 21.421875 -288.828125 L 135.140625 -288.828125 C 160.679688 -288.828125 183.203125 -283.125 202.703125 -271.71875 C 222.210938 -260.320312 237.390625 -243.84375 248.234375 -222.28125 C 259.085938 -200.71875 264.515625 -174.96875 264.515625 -145.03125 C 264.515625 -114.539062 259.019531 -88.445312 248.03125 -66.75 C 237.039062 -45.050781 221.726562 -28.566406 202.09375 -17.296875 C 182.457031 -6.035156 159.863281 -0.40625 134.3125 -0.40625 L 21.421875 -0.40625 Z M 122.375 -58.09375 C 144.894531 -58.09375 162.742188 -64.546875 175.921875 -77.453125 C 189.109375 -90.367188 195.703125 -112.894531 195.703125 -145.03125 C 195.703125 -177.164062 189.175781 -199.6875 176.125 -212.59375 C 163.082031 -225.507812 145.164062 -231.96875 122.375 -231.96875 L 83.640625 -231.96875 L 83.640625 -58.09375 Z M 122.375 -58.09375 "/></g></g></g><g fill="#ffffff" fill-opacity="1"><g transform="translate(569.996728, 490.290031)"><g><path d="M 69.21875 3.703125 C 59.050781 3.703125 50.671875 0.269531 44.078125 -6.59375 C 37.492188 -13.457031 34.203125 -21.832031 34.203125 -31.71875 C 34.203125 -41.613281 37.492188 -49.925781 44.078125 -56.65625 C 50.671875 -63.382812 59.050781 -66.75 69.21875 -66.75 C 79.382812 -66.75 87.832031 -63.382812 94.5625 -56.65625 C 101.289062 -49.925781 104.65625 -41.613281 104.65625 -31.71875 C 104.65625 -21.832031 101.21875 -13.457031 94.34375 -6.59375 C 87.476562 0.269531 79.101562 3.703125 69.21875 3.703125 Z M 69.21875 3.703125 "/></g></g></g></g></g></g><g clip-path="url(#97bfcc80ac)"><g transform="matrix(1, 0, 0, 1, 0.000000000000014211, 160)"><g clip-path="url(#4a7dd0d21d)"><g fill="#ffffff" fill-opacity="1"><g transform="translate(5.073173, 335.412008)"><g><path d="M 328.234375 -233.453125 L 319.359375 -233.453125 C 321.847656 -246.210938 323.09375 -256.953125 323.09375 -265.671875 C 323.09375 -277.492188 319.59375 -285.738281 312.59375 -290.40625 C 305.59375 -295.082031 294.773438 -297.421875 280.140625 -297.421875 L 232.984375 -297.421875 L 168.546875 -73.765625 C 164.816406 -61.628906 162.25 -52.523438 160.84375 -46.453125 C 159.445312 -40.390625 158.75 -35.644531 158.75 -32.21875 C 158.75 -21.945312 162.5625 -15.410156 170.1875 -12.609375 C 177.8125 -9.804688 188.160156 -8.40625 201.234375 -8.40625 L 198.90625 0 L 48.09375 0 L 50.421875 -8.40625 L 55.09375 -8.40625 C 67.539062 -8.40625 77.34375 -9.570312 84.5 -11.90625 C 91.664062 -14.238281 97.894531 -19.0625 103.1875 -26.375 C 108.476562 -33.695312 113.300781 -44.984375 117.65625 -60.234375 L 185.828125 -297.421875 L 148.46875 -297.421875 C 131.664062 -297.421875 117.972656 -295.316406 107.390625 -291.109375 C 96.804688 -286.910156 88.085938 -280.21875 81.234375 -271.03125 C 74.390625 -261.851562 68.320312 -249.328125 63.03125 -233.453125 L 53.6875 -233.453125 L 77.5 -315.15625 L 352.046875 -315.15625 Z M 328.234375 -233.453125 "/></g></g></g><g fill="#ffffff" fill-opacity="1"><g transform="translate(243.650243, 335.412008)"><g><path d="M 151.28125 -213.375 C 164.351562 -213.375 175.320312 -210.101562 184.1875 -203.5625 C 193.0625 -197.03125 197.5 -188.628906 197.5 -178.359375 C 197.5 -168.398438 192.828125 -157.035156 183.484375 -144.265625 C 174.148438 -131.503906 158.976562 -120.222656 137.96875 -110.421875 C 116.957031 -100.617188 90.265625 -95.25 57.890625 -94.3125 C 56.023438 -88.09375 55.09375 -80.46875 55.09375 -71.4375 C 55.09375 -52.445312 60.226562 -38.671875 70.5 -30.109375 C 80.769531 -21.554688 92.132812 -17.28125 104.59375 -17.28125 C 125.445312 -17.28125 146.613281 -27.707031 168.09375 -48.5625 L 174.15625 -42.953125 C 140.851562 -10.578125 108.632812 5.609375 77.5 5.609375 C 64.738281 5.609375 53.609375 2.414062 44.109375 -3.96875 C 34.617188 -10.351562 27.460938 -18.679688 22.640625 -28.953125 C 17.816406 -39.222656 15.40625 -49.804688 15.40625 -60.703125 C 15.40625 -82.484375 21.707031 -105.359375 34.3125 -129.328125 C 46.925781 -153.296875 63.738281 -173.296875 84.75 -189.328125 C 105.757812 -205.359375 127.9375 -213.375 151.28125 -213.375 Z M 60.703125 -103.1875 C 81.867188 -104.738281 98.988281 -108.316406 112.0625 -113.921875 C 124.820312 -119.523438 135.171875 -126.757812 143.109375 -135.625 C 151.046875 -144.5 156.722656 -153.21875 160.140625 -161.78125 C 163.566406 -170.34375 165.28125 -177.425781 165.28125 -183.03125 C 165.28125 -188.320312 163.332031 -193.222656 159.4375 -197.734375 C 155.550781 -202.242188 150.03125 -204.5 142.875 -204.5 C 130.425781 -204.5 118.363281 -198.738281 106.6875 -187.21875 C 95.007812 -175.707031 85.046875 -162.015625 76.796875 -146.140625 C 68.554688 -130.265625 63.191406 -115.945312 60.703125 -103.1875 Z M 60.703125 -103.1875 "/></g></g></g><g clip-path="url(#8397dc8907)"><g fill="#ffffff" fill-opacity="1"><g transform="translate(415.463223, 335.412008)"><g><path d="M 64.90625 -52.296875 C 62.71875 -44.828125 61.078125 -38.832031 59.984375 -34.3125 C 58.898438 -29.800781 58.359375 -25.988281 58.359375 -22.875 C 58.359375 -20.695312 58.898438 -19.0625 59.984375 -17.96875 C 61.078125 -16.882812 62.09375 -16.34375 63.03125 -16.34375 C 66.769531 -16.34375 73.148438 -20.851562 82.171875 -29.875 C 91.203125 -38.90625 96.804688 -45.289062 98.984375 -49.03125 L 106.453125 -44.828125 C 96.492188 -31.128906 85.597656 -19.296875 73.765625 -9.328125 C 61.941406 0.628906 50.894531 5.609375 40.625 5.609375 C 28.164062 5.609375 21.9375 -1.707031 21.9375 -16.34375 C 21.9375 -22.257812 23.179688 -29.570312 25.671875 -38.28125 C 28.171875 -47 29.882812 -52.757812 30.8125 -55.5625 L 97.109375 -286.21875 C 98.984375 -293.375 99.921875 -298.972656 99.921875 -303.015625 C 99.921875 -307.066406 98.519531 -310.335938 95.71875 -312.828125 C 92.914062 -315.316406 89.335938 -316.5625 84.984375 -316.5625 C 79.066406 -316.5625 73.773438 -316.09375 69.109375 -315.15625 L 69.109375 -324.03125 L 137.734375 -334.765625 L 145.671875 -334.765625 L 70.96875 -73.296875 C 67.851562 -62.097656 65.832031 -55.097656 64.90625 -52.296875 Z M 64.90625 -52.296875 "/></g></g></g></g><g clip-path="url(#0985a7b64a)"><g fill="#ffffff" fill-opacity="1"><g transform="translate(509.305028, 335.412008)"><g><path d="M 64.90625 -52.296875 C 62.71875 -44.828125 61.078125 -38.832031 59.984375 -34.3125 C 58.898438 -29.800781 58.359375 -25.988281 58.359375 -22.875 C 58.359375 -20.695312 58.898438 -19.0625 59.984375 -17.96875 C 61.078125 -16.882812 62.09375 -16.34375 63.03125 -16.34375 C 66.769531 -16.34375 73.148438 -20.851562 82.171875 -29.875 C 91.203125 -38.90625 96.804688 -45.289062 98.984375 -49.03125 L 106.453125 -44.828125 C 96.492188 -31.128906 85.597656 -19.296875 73.765625 -9.328125 C 61.941406 0.628906 50.894531 5.609375 40.625 5.609375 C 28.164062 5.609375 21.9375 -1.707031 21.9375 -16.34375 C 21.9375 -22.257812 23.179688 -29.570312 25.671875 -38.28125 C 28.171875 -47 29.882812 -52.757812 30.8125 -55.5625 L 97.109375 -286.21875 C 98.984375 -293.375 99.921875 -298.972656 99.921875 -303.015625 C 99.921875 -307.066406 98.519531 -310.335938 95.71875 -312.828125 C 92.914062 -315.316406 89.335938 -316.5625 84.984375 -316.5625 C 79.066406 -316.5625 73.773438 -316.09375 69.109375 -315.15625 L 69.109375 -324.03125 L 137.734375 -334.765625 L 145.671875 -334.765625 L 70.96875 -73.296875 C 67.851562 -62.097656 65.832031 -55.097656 64.90625 -52.296875 Z M 64.90625 -52.296875 "/></g></g></g></g></g></g></g></g></g></svg>